<svg viewBox="0 0 205 80" xmlns="http://www.w3.org/2000/svg" xmlns:xlink="http://www.w3.org/1999/xlink"><use xlink:href="#a" transform="translate(13.2 27.6)" fill="#EF1C8F"></use><use xlink:href="#b" fill="#434245"></use><use xlink:href="#c" transform="translate(21.9 33.6)" fill="#FFF"></use><use xlink:href="#d" transform="translate(33.6 33.6)" fill="#FFF"></use><use xlink:href="#e" transform="translate(78.1 35)" fill="#434245"></use><use xlink:href="#f" transform="translate(89.2 39.1)" fill="#434245"></use><use xlink:href="#g" transform="translate(97.4 36.8)" fill="#434245"></use><use xlink:href="#h" transform="translate(103.3 39.1)" fill="#434245"></use><use xlink:href="#i" transform="translate(115.5 39)" fill="#434245"></use><use xlink:href="#j" transform="translate(125.6 34.8)" fill="#434245"></use><use xlink:href="#k" transform="translate(137.7 39.2)" fill="#434245"></use><use xlink:href="#l" transform="translate(157.2 34.9)" fill="#434245"></use><use xlink:href="#m" transform="translate(167.4 36.8)" fill="#434245"></use><use xlink:href="#n" transform="translate(173.6 39.2)" fill="#434245"></use><use xlink:href="#o" transform="translate(187.4 39.2)" fill="#434245"></use><g><use xlink:href="#p" transform="translate(194.1 39.2)" fill="#434245"></use></g><defs><path id="a" d="M0 0v31.9c0 10.8 19.9 19.4 19.9 19.4S39.8 41.7 39.8 32V.1H0V0z"></path><path id="b" d="M64.1 58.1c-.7.8-1.4 1.3-2.2 1.3-.3 0-.7-.1-1.1-.4-.4-.2-.7-.4-.8-.4-.5 0-.8.2-.8.5 0 0 .1.2.2.6 0 .1-.1.1-.2.1-.3 0-.5-.2-.8-.5-.3-.3-.4-.6-.4-.8 0 0-.1-.4-.2-1.2-.1-.4-.2-.6-.2-.8-.1-.2-.3-.3-.5-.3-.1 0-.1.1-.3.2l-.3.3c0 .2-.1.3-.1.4-.1.2-.1.3-.3.4-.2-.2-.4-.5-.5-.8-.1-.2-.2-.4-.2-.6 0-.1.1-.4.4-.9.2-.5.4-.9.4-1.2 0-.2-.1-.4-.2-.5-.1-.1-.3-.1-.6-.1-.4 0-.7.1-1 .4-.1 0-.1-.1-.1-.2v-.1c0-.5.4-1.1 1.2-1.7 1-.7 1.8-1.1 2.7-1.1 1 0 1.9.3 2.7.9.8.6 1.1 1.3 1.1 2.1v.5c0 .1-.1.2-.3.4-.2-.4-.4-.6-.7-.6-.7 0-1 .3-1 .9 0 .2.1.4.3.6.2.1.5.2.8.2.4 0 .8-.2 1.1-.6.3-.4.5-.8.5-1.3 0-1-.4-1.9-1.3-2.6-.8-.7-1.9-1.1-3.1-1.1-1.1 0-2 .3-2.9 1-.1-.4-.3-.7-.4-1-.2-.3-.4-.5-.7-.5h-.2c-.1 0-.2-.1-.3-.4-.1-.2-.3-.3-.5-.4v-7.6c.1.3.3.7.5 1.1.5 1 1 1.7 1.5 2.2.5.5 1.1.7 1.8.8.5.1.8.1 1.1.3.4.2.8.6 1 1.2.1.2.3.2.7.2.2 0 .3-.1.5-.2s.2-.2.3-.2c.2 0 .4.2.8.5.5.4.9 1 1.4 1.6.4.5.5.9.5 1.1v.8c0 .1 0 .3.1.4.1.1.1.2.2.2s.2-.1.3-.2c.1-.4.1-.7.1-.7 0-.1 0-.4-.1-.7-.1-.4-.1-.7-.2-1 1.2 1.4 1.8 3.2 1.8 5.3-.3 1.9-.7 3.2-1.5 4.2zm-17-30.8c.4-.1.7-.2 1.1-.3 1.3-.5 2.4-1.1 3.2-1.8.1 1.3.3 2 .6 2.1h-4.9zm4.5 31.9c0 9.3-18.6 18.5-18.6 18.5s-18.6-8.2-18.7-18.5V28.7h37.3v30.5zm-37.2-34c.8.8 1.8 1.4 3.2 1.8.4.1.7.2 1.1.3h-4.9c.3-.2.5-.9.6-2.1zM25.6 27c1.1-.4 2-1.1 3-2.1.6-.7 1.1-1.4 1.4-2.2.4-.2.7-.3.8-.3.7 0 1.1.2 1.1.5 0 .1-.1.3-.4.7-.3.4-.5.7-.5.8 0 .2.1.3.3.5.2.1.4.3.6.5-.2.4-.3.7-.3.7 0 .1.1.2.4.4.3.1.6.2.8.2.3 0 .4-.1.4-.3v-.3-.4c0-.3.2-.5.6-.7v-.1c0-.3-.1-.6-.4-1-.3-.4-.4-.6-.4-.7 0-.2.1-.3.3-.5.2-.1.4-.2.7-.2.1 0 .4.1.8.3.4.2.8.3 1 .3h.2c.3.7.7 1.3 1.2 1.9.9 1 1.9 1.7 3 2.1.2.1.5.2.8.3H24.8c.3-.2.6-.3.8-.4zM12.9 49c-.2.1-.3.3-.4.4-.2.3-.3.4-.3.4H12c-.3 0-.5.2-.7.5-.2.3-.3.7-.4 1-.9-.6-1.8-1-2.9-1-1.2 0-2.2.4-3.1 1.1-1 .7-1.4 1.6-1.4 2.6 0 .5.2.9.5 1.3s.7.6 1.1.6c.3 0 .6-.1.8-.2.2-.1.3-.3.3-.6 0-.6-.3-.9-1-.9-.2 0-.5.2-.7.6-.2-.2-.3-.3-.3-.4v-.2-.3c0-.8.4-1.5 1.1-2.1.8-.5 1.6-.8 2.7-.8.8 0 1.7.4 2.7 1.1.8.6 1.2 1.2 1.2 1.7v.1c0 .1 0 .2-.1.2-.2-.2-.5-.4-1-.4-.3 0-.5 0-.6.1-.2.1-.3.2-.3.5s.1.6.4 1.2c.2.5.4.8.4.9 0 .2-.1.4-.2.6-.1.3-.3.6-.5.8-.1-.1-.2-.2-.3-.4 0-.1-.1-.3-.1-.4 0-.1-.1-.2-.3-.3-.1-.1-.2-.2-.3-.2-.2 0-.4.1-.5.3-.1.1-.2.4-.2.8-.2.5-.3.9-.3.9 0 .2-.1.5-.4.8-.3.3-.6.5-.8.5-.1 0-.2 0-.2-.1.1-.4.2-.6.2-.6 0-.3-.3-.5-.8-.5-.1 0-.4.1-.8.4-.4.2-.8.4-1.1.4-.8 0-1.5-.4-2.2-1.3-.8-1-1.2-2.3-1.2-3.9 0-2.1.6-3.9 1.8-5.3 0 .3-.1.6-.2 1s-.1.6-.1.7c0 0 0 .3.1.7.1.1.2.2.3.2.1 0 .1-.1.2-.2s.1-.3.1-.4v-.4-.4c0-.2.2-.5.5-1.1.4-.6.9-1.1 1.4-1.6.4-.4.7-.5.8-.5 0 0 .1.1.3.2.2.1.3.2.5.2.4 0 .6-.1.7-.2.3-.6.6-1 1-1.2.2-.1.6-.2 1.1-.3.7-.1 1.3-.4 1.8-.8.5-.5 1-1.2 1.5-2.2.2-.3.3-.7.4-1V49zm52.6 2c-.3-1-.9-1.9-1.7-2.7h.5c.2 0 .5-.1.7-.3.3-.2.4-.4.4-.5 0-.2-.1-.3-.3-.3 0 0-.1.1-.3.2-.2.1-.5.2-.8.2-.5 0-1-.1-1.5-.3-.4-.2-.7-.3-1.1-.5-.3-.1-.6-.2-1-.4l-.3-.6c-.1-.3-.4-.4-.8-.4 0 0-.1 0-.3.1-.2.1-.3.1-.4.1h-.1c-.2 0-.3 0-.4-.1-.1-.2-.2-.3-.4-.4.1-.1.2-.2.3-.4.1-.1.2-.2.2-.3 0-.1-.1-.2-.3-.3-.2-.1-.4-.1-.6-.1-.1 0-.2 0-.4.1-.2 0-.4.1-.5.1-.3 0-.8-.3-1.4-.8l.6-.3c.2-.1.3-.2.3-.4s-.2-.5-.5-.7c-.6-.4-1-.7-1.1-.8-.4-.4-.7-1-1.1-2-.2-.5-.3-1-.4-1.5v-3.2c.1-.8.2-1.5.4-2.2.3-1.1.6-1.7.8-1.8v.2l-.2.6c-.1.4-.2.9-.3 1.4-.1.7-.2 1.4-.2 2.2 0 1.8.5 3.6 1.5 5.2.5.7 1.2 1.4 2.3 2 1.1.6 2.1.9 3 .9.5 0 1.2-.2 2-.6.9-.4 1.5-.8 2-1.3.4-.5.8-1.1 1-1.7.2-.6.3-1.1.3-1.6v-.7c0-1.3-.4-2.5-1.3-3.5s-2-1.5-3.2-1.5c-1 0-2 .4-2.8 1.2-.8.8-1.2 1.7-1.2 2.7 0 .7.2 1.3.7 1.8.4.5.9.8 1.5.8s1-.1 1.3-.4c.3-.3.5-.6.5-1 0-.3-.1-.6-.3-.9-.2-.2-.5-.4-.8-.4-.3 0-.5.1-.7.3-.2.2-.3.5-.3.7v.4c0 .1-.1.2-.2.2-.3 0-.5-.2-.7-.6-.2-.4-.3-.7-.3-1 0-.4.1-.9.4-1.3.3-.5.5-.8.9-1 0 .2.1.3.2.4.1.1.3.2.5.2s.5-.2.9-.7c.3-.4.6-.7.9-.7.1 0 .1 0 .2.1-.5.4-.8.7-.8 1 0 .2.1.3.2.4.1.1.3.2.5.2.1 0 .4 0 .7-.1.4-.1.6-.1.8-.1h.1c.3 0 .7.3 1.1.8.5.7.7 1.5.7 2.4 0 .8-.4 1.6-1.1 2.6-.3.5-.9.9-1.7 1.3-.7.4-1.2.6-1.6.6-.1 0-.2 0-.3-.1 0 0 .1-.1.2-.3.1-.2.2-.3.2-.4 0-.1-.1-.3-.3-.4-.2-.1-.5-.2-.7-.2-.2 0-.4.1-.7.2-.3.1-.6.2-.7.2-.3 0-.6-.1-.9-.2-.3-.1-.4-.2-.4-.3 0-.1.2-.2.6-.4.4-.1.6-.3.6-.5 0-.1-.1-.3-.4-.5-.3-.2-.7-.3-1.2-.4-.2 0-.4-.1-.8-.2-.2-.1-.4-.3-.6-.6-.2-.2-.3-.4-.3-.5 0-.1.1-.2.2-.3.1-.1.2-.2.2-.3 0-.1-.1-.3-.3-.6-.2-.3-.4-.6-.5-.9-.2-.5-.3-1-.3-1.6 0-.4.1-.9.2-1.6.2-.7.3-1.2.5-1.6.2-.4.4-.7.6-1.1.2-.3.3-.5.5-.5.4-.2.7-.4.7-.6 0-.2-.3-.4-.9-.4h-.4c-.3 0-.5.1-.8.3-.1.1-.4.5-.8 1.2-.4.5-.6 1.1-.9 1.7v-4H52c.2-.1.3-.2.3-.3 0-.1 0-.3-.1-.5 0-.3-.1-.5-.1-.6 0-.2.1-.5.2-.8.2-.5.3-.8.3-.8.2-1-1.1-1.6-2.5-.7-.2.1-.5.3-.9.4-.4.1-.7.2-1.1.3-.4.1-.7.2-1.1.3-.2.1-.3.2-.3.2 0 .2.2.2.6.2h.2c.4 0 1.3-.2 2.6-.5.1 0 .2 0 .2.1-.1.3-.4.5-.8.8-.8.4-1.6.8-2.6 1.1-.9.2-1.8.4-2.6.4-1.4 0-2.5-.1-3.3-.3-1.2-.3-2.1-.9-2.9-1.6-.7-.7-1.1-1.4-1.1-2.1 0-.2 0-.4.1-.6.2-.2.3-.3.4-.5.1-.2.1-.2.1-.3 0-.1-.1-.1-.2-.1.2-.5.3-.9.3-1.1 0-.2-.1-.4-.4-.5-.3-.1-.4-.2-.4-.4s.2-.5.7-.7c.6-.2 1.1-.4 1.7-.6.8-.3 1.2-.7 1.2-1 0-.5-.3-.9-1-1.1.1-.3.4-.5 1-.5.4 0 .8.1 1.3.4.5.3.9.4 1.2.4.5 0 .9-.2 1-.6 0-.2.1-.4.1-.6 0-.2.2-.3.4-.3.3 0 .6.2 1 .7.5.5.9 1.1 1.2 1.9.2.5.3 1.1.3 1.8 0 1.1-.3 1.9-.9 2.6-.5.6-1.1.9-1.7.9-1.1 0-1.7-.2-1.7-.6 0 0 .2-.2.5-.4.3-.3.5-.6.5-.9 0-.3-.1-.6-.3-.8-.2-.2-.5-.4-.7-.4-.5 0-1 .2-1.3.5-.4.3-.5.7-.5 1.1 0 .7.3 1.2.8 1.6.5.4 1.2.7 2.1.7.4 0 .9-.1 1.4-.3.5-.2 1-.4 1.3-.7.5-.4.8-.9 1.1-1.5.3-.6.4-1.3.4-1.9 0-1.4-.6-2.8-1.8-4.1.1-.1.2-.1.4-.1.1 0 .2 0 .4.1s.3.1.3.1c.6 0 .9-.3 1.1-.9.1-.5-1.3-1-2.4-1-.3 0-.8 0-1.5-.1-.4.1-1 .1-1.4.1-1 0-1.8.1-2.5.4-3.5 1.3-5.3 3.5-5.3 6.6v.4c-.3.1-.7.3-1 .6-.5.5-.9.9-1.3 1l-.1-.3c.6-2.7 1.8-5 3.4-6.7 1-1 1.4-1.5 1.4-1.5 0-.1-.1-.1-.2-.1-.3 0-.7.2-1.3.7-.6.5-1.1.7-1.4.8l-.1-.1.2-.4c.8-.8 1.7-1.6 3-2.3.9-.6 1.3-1 1.3-1.2 0-.6-.4-.9-1.2-.9-.3 0-.5.1-.9.3h-.3c1.1-.7 1.6-1.3 1.6-1.6v-.3c0-.2.1-.4.3-.5.2.2.4.3.6.3.2 0 .5-.1.6-.3.2-.2.3-.4.3-.7 0-.4-.2-.8-.6-1.2-.4-.4-.8-.6-1.2-.6-.5 0-1 .4-1.7 1.1-.8.8-1.5 1.9-2 3.2-.3.7-.6 1.8-.8 3.2-.3 1.2-.5 2.1-.8 2.7-.1-.3-.1-.7-.1-1.1 0 0 .1-1.3.3-3.8.1-2 .3-3.1.4-3.5.2-.7.5-1.6.8-2.5.3-.8.5-1.3.5-1.4 0-.4-.2-.6-.5-.7 0 0-.1.1-.2.1s-.1.1-.1.1c-.5-.6-1-.9-1.7-.9s-1.1.4-1.2 1.3c-.3.2-.5.3-.5.4 0 .1-.1.2-.1.2s.3 1 .9 3.1c.6 2.1.8 4.2.8 6.3v.6c0 .3-.1.5-.2.9-.3-.5-.5-1.3-.6-2.4-.2-1.1-.4-1.9-.6-2.4C29.7 7.3 28.5 6 27.5 6c-.4 0-.8.2-1.1.5-.3.3-.5.7-.5 1 0 .3.2.6.5.7.3.1.7.2 1.1.4.4.1.6.4.8.8-.8.4-1.1.7-1.1 1.1 0 .2.3.5.8.8.9.6 1.4 1 1.7 1.2.7.5 1 1.2 1 1.9l-.1.1c-.2 0-.5-.3-.8-.8-.3-.5-.5-.7-.8-.7-.2 0-.3.1-.3.2l.1.2c2.2 3.1 3.4 5.5 3.4 7.3 0 .6-.2.8-.5.8-.1 0-.4-.2-.8-.5-.1-.1-.3-.2-.4-.3 0-.3.1-.6.1-.9 0-3-1.8-5.2-5.3-6.6-.7-.3-1.5-.4-2.5-.4-.4 0-.9 0-1.6.1-.7.1-1.2.1-1.5.1-1.1 0-2.5.5-2.4 1 .1.6.5.9 1.1.9 0 0 .1 0 .3-.1.2-.1.3-.1.4-.1.1 0 .3 0 .4.1-1.2 1.3-1.8 2.7-1.8 4.1 0 .7.1 1.3.4 1.9.3.6.6 1.1 1.1 1.5.3.3.8.5 1.3.7.5.2 1 .3 1.4.3.9 0 1.6-.2 2.1-.7.5-.4.8-1 .8-1.6 0-.5-.2-.8-.5-1.1-.4-.3-.8-.5-1.3-.5-.3 0-.5.1-.7.4-.2.2-.3.5-.3.8 0 .3.2.6.5.9.3.3.5.4.5.4 0 .4-.6.6-1.7.6-.6 0-1.2-.3-1.7-.9-.6-.7-.9-1.5-.9-2.6 0-.7.1-1.3.3-1.8.3-.8.7-1.4 1.2-1.9.4-.4.8-.7 1.1-.7.2 0 .3.1.4.3 0 .2.1.4.1.6.1.4.4.6 1 .6.3 0 .7-.1 1.2-.4.5-.3 1-.4 1.4-.4.6 0 .9.2 1 .5-.7.2-1 .6-1 1.1 0 .4.4.7 1.2 1 .6.2 1.1.4 1.7.6.5.2.7.4.7.7 0 .1-.1.2-.4.4-.3.1-.4.3-.4.5s.1.6.3 1.2c0 .1.1.2.1.4l-.1.1-.4-.1c-.3-.1-.4-.2-.5-.3 0 .1-.1.1-.1.2 0 .2.2.5.6.8.2.2.4.3.6.4 0 .7-.4 1.4-1.1 2.1-.8.8-1.7 1.3-2.9 1.6-.8.2-1.9.3-3.3.3-.8 0-1.6-.1-2.6-.4-1-.3-1.8-.6-2.6-1.1-.4-.2-.7-.5-.8-.8 0-.1.1-.1.2-.1 1.3.3 2.2.5 2.6.5h.2c.4 0 .6-.1.6-.2s-.1-.2-.3-.2c-.4-.1-.7-.2-1.1-.3-.4-.1-.7-.2-1.1-.3-.4-.1-.7-.2-.9-.4-1.4-.9-2.7-.3-2.5.7 0 0 .1.3.3.8.1.3.2.6.2.8 0 .1 0 .3-.1.6 0 .3-.1.4-.1.5 0 .1.1.2.3.3h-.6v4c-.3-.6-.5-1.2-.9-1.7-.4-.7-.7-1.1-.8-1.2-.2-.2-.5-.3-.8-.3h-.4c-.9 0-1.2.1-1.2.4 0 .2.2.4.7.6.2.1.3.3.5.5.2.4.4.7.6 1.1.2.3.4.9.5 1.6.1.6.2 1.2.2 1.6 0 .6-.1 1.2-.3 1.6-.1.3-.2.6-.5.9-.2.3-.3.5-.3.6 0 .1.1.2.2.3.1.1.2.2.2.3 0 .1-.1.3-.3.5l-.6.6c-.3.1-.6.2-.7.2-.5.1-.9.2-1.2.4-.3.2-.4.3-.4.5s.2.4.6.5c.4.1.6.3.6.4 0 .1-.1.2-.4.3-.3 0-.6.1-.9.1-.1 0-.3-.1-.7-.2-.3-.1-.6-.2-.7-.2-.3 0-.5.1-.7.2-.2.1-.3.2-.3.4 0 .1.1.3.2.4.1.2.2.3.2.3-.2.1-.3.1-.4.1-.3 0-.9-.2-1.6-.6-.8-.4-1.3-.9-1.7-1.3-.7-.9-1.1-1.8-1.1-2.6 0-.9.2-1.7.7-2.4.4-.5.8-.8 1.1-.8h.1c.2 0 .4 0 .8.1s.6.1.7.1c.2 0 .3-.1.5-.2.1-.1.2-.2.2-.4 0-.3-.3-.7-.8-1 .1-.1.1-.1.2-.1.3 0 .6.2.9.7.3.4.6.7.9.7.2 0 .3-.1.5-.2.1-.1.2-.3.2-.4.3.2.6.5.9 1 .2.5.4.9.4 1.3 0 .3-.1.7-.3 1-.2.4-.4.5-.7.6-.1 0-.2-.1-.2-.2v-.2-.2c0-.3-.1-.5-.3-.7-.2-.2-.5-.3-.7-.3-.3 0-.5.1-.8.4-.2.2-.3.5-.3.9s.2.8.5 1c.3.3.8.4 1.3.4.6 0 1.1-.3 1.5-.8.4-.5.7-1.1.7-1.8 0-1-.4-2-1.2-2.7-.8-.8-1.8-1.2-2.8-1.2-1.3 0-2.4.5-3.2 1.5-.9 1-1.3 2.2-1.3 3.5v.7c0 .5.1 1 .3 1.6.3.7.6 1.2 1.1 1.7.4.5 1.1.9 2 1.3.8.4 1.5.6 2 .6.9 0 1.9-.3 3-.9 1.1-.6 1.9-1.3 2.3-2 1-1.6 1.5-3.3 1.5-5.2 0-.8-.1-1.5-.2-2.2-.1-.5-.2-.9-.3-1.4l-.2-.6v-.2c.3.1.5.7.8 1.8.2.7.3 1.3.4 2.1v3.4c-.1.4-.2.9-.3 1.3-.3 1-.7 1.6-1.1 2-.1.1-.5.4-1.1.8-.4.1-.5.4-.5.6 0 .2.1.3.3.4.3.2.5.3.6.3-.7.5-1.2.8-1.5.8-.1 0-.3 0-.5-.1-.2 0-.3-.1-.4-.1-.2 0-.5 0-.6.1-.2.1-.3.2-.3.3 0 .1.1.2.2.3.2.3.3.4.3.5-.1.1-.3.2-.4.4-.1.1-.2.1-.4.1-.1 0-.2 0-.4-.1s-.3-.1-.3-.1c-.4 0-.7.1-.8.4l-.3.6c-.4.2-.7.3-1 .4-.4.2-.7.3-1.1.5-.5.2-1 .3-1.5.3-.3 0-.6-.1-.8-.2-.2-.1-.3-.2-.3-.2-.2 0-.3.1-.3.3 0 .1.1.3.4.5.3.2.5.3.7.3H2C1.4 49.1.8 50 .5 51c-.3.9-.5 2-.5 3.4s.4 2.7 1.1 3.7c.6.8 1.3 1.5 2.2 2 .9.5 1.8.7 2.7.7 1.3 0 2.3-.2 3.2-.7 1.2-.6 2.1-1.3 2.7-2.2.5-.7.8-1.4.8-2 0-.6-.1-1.4-.3-2.3-.2-.9-.3-1.5-.3-1.8 0-.7.2-1.3.7-1.8v9.5c0 11 20.1 19.6 20.1 19.6s20.1-9.8 20-19.6V50c.5.5.7 1.1.7 1.8 0 .3-.1.9-.3 1.8-.2.9-.3 1.6-.3 2.3 0 .6.3 1.3.8 2 .6.9 1.5 1.7 2.7 2.2.9.4 2 .7 3.2.7 1 0 1.9-.2 2.7-.7.9-.5 1.6-1.1 2.2-2 .7-1.1 1.1-2.3 1.1-3.7.2-1.4.1-2.5-.2-3.4zm-35-48.9c.1 0 .4-.1.9-.3.5-.2.9-.3 1.2-.3.3 0 .8.1 1.3.3.5.2.9.3 1 .3.1 0 .3-.1.4-.2.1-.1.2-.3.2-.4 0-.3-.2-.7-.7-1-.5-.3-1-.5-1.7-.5-.9 0-1.6.1-2.2.4-.6.3-.9.6-.9 1 .1.5.3.7.5.7z"></path><path id="c" d="M0 0h9.3v1.4H1.4v25.3h7.9v1.4H0V0zm5.8 20.2c.6 0 .9.3.9.9 0 .6-.3.9-.9.9-.6 0-.9-.3-.9-.9-.1-.6.2-.9.9-.9z"></path><path id="d" d="M7.5 14.8c-2.1 0-3.9-.7-5.3-2.2C.7 11.2 0 9.4 0 7.4s.7-3.8 2.2-5.2C3.6.8 5.4 0 7.4 0s3.8.7 5.2 2.2c1.4 1.4 2.2 3.2 2.2 5.2h-1.4c0-1.6-.6-3-1.8-4.2C10.4 2 9 1.4 7.4 1.4c-1.7 0-3.1.6-4.2 1.8-1.1 1.2-1.8 2.6-1.8 4.2 0 1.7.6 3.1 1.8 4.2 1.2 1.1 2.6 1.8 4.3 1.8 2.1 0 3.8.7 5.2 2.2 1.4 1.4 2.1 3.2 2.1 5.2s-.7 3.8-2.2 5.2c-1.4 1.4-3.2 2.2-5.2 2.2s-3.8-.7-5.2-2.2C.8 24.6 0 22.8 0 20.7h1.4c0 1.7.6 3.1 1.8 4.3 1.2 1.2 2.6 1.8 4.2 1.8s3-.6 4.2-1.7c1.2-1.2 1.8-2.6 1.8-4.2s-.6-3-1.7-4.2c-1.1-1.3-2.5-1.9-4.2-1.9z"></path><path id="e" d="M0 17c.2-2.2.3-5.2.4-8.7C.5 4.8.6 2 .6 0h9.7v.9l-1-.1H1.6l-.3 7.1h8c0 .2-.1.5-.1.8h-8l-.3 7.5h6.5c.5 0 1.3 0 2.2-.1 0 .3-.1.6-.1.9H0z"></path><path id="f" d="M.1 12.6c0-.4 0-.8-.1-1.1.7.3 1.3.5 1.9.6.6.1 1.1.2 1.6.2.6 0 1.2-.1 1.6-.3.5-.2.8-.5 1-.8.2-.3.3-.7.3-1.1 0-.2 0-.3-.1-.5 0-.2-.1-.3-.2-.5s-.2-.3-.3-.4c-.1-.1-.2-.3-.4-.5s-.4-.4-.7-.6c-.2-.2-.6-.5-1.2-1-.5-.4-1-.8-1.3-1.1-.3-.3-.6-.6-.9-1-.2-.3-.4-.6-.5-.9-.1-.3-.1-.6-.1-.8 0-.5.2-.9.5-1.4.3-.5.7-.8 1.3-1C3.1.2 3.8 0 4.7 0c.7 0 1.6.1 2.5.3 0 .4 0 .7.1 1.1-.5-.2-1-.4-1.4-.5C5.5.8 5.1.8 4.6.8s-1 .1-1.5.2c-.5.2-.8.4-1 .7-.2.3-.3.6-.3 1 0 .2 0 .4.1.6 0 .2.1.4.2.5.1.2.2.4.4.5.2.2.4.4.7.6.3.2.7.6 1.2 1s.9.8 1.1 1c.2.2.5.4.6.6.2.2.3.4.5.6.2.2.3.4.4.6.1.2.2.4.2.6 0 .2.1.4.1.6 0 .5-.2 1-.5 1.5s-.8.8-1.3 1.1c-.5.3-1.3.4-2.1.4-.3 0-.7 0-1.2-.1s-.8-.1-1.1-.2c-.2.3-.6.2-1 0z"></path><path id="g" d="M5.9 14.4c-.1.2-.1.5-.1.8-.7.2-1.3.2-1.9.2-.5 0-.9-.1-1.3-.2s-.7-.3-.9-.6c-.2-.3-.4-.6-.5-.9-.1-.3-.1-.7-.1-1.1v-.3-.9l.4-8.2H0c0-.2.1-.4.1-.7h1.5c0-.5.1-1.3.1-2.3.3 0 .6-.1.8-.2-.1 1.3-.1 2.2-.1 2.5h3.7c0 .2-.1.4-.1.7H2.3l-.4 8.5v.5c0 .7.1 1.2.2 1.5.1.3.4.5.7.7.3.1.6.2.9.2.2 0 .5 0 .7-.1.5.2.9.1 1.5-.1z"></path><path id="h" d="M1.7 1.6c.1-.3.1-.6.1-1C2.6.4 3.4.2 4 .1 4.6 0 5.3 0 5.9 0c.7 0 1.4.1 2.1.2.6.1 1.2.3 1.6.6.4.3.7.6.8 1 .1.4.2.8.2 1.2v1.6c0 .7-.1 1.3-.1 2s-.1 1.6-.1 2.7-.1 1.9-.1 2.4v1h-1c.1-1.3.2-2.3.2-3.1 0-.8.1-1.6.1-2.5 0-.9.1-1.8.1-2.5-.3.2-.5.4-.6.5-.1.1-.3.2-.4.3l-.6.3c-.2.1-.4.2-.6.2-.2.1-.7.2-1.4.4s-1.3.3-1.6.4c-.7.2-1.3.5-1.7.7-.4.2-.8.5-1.1.7-.2.2-.4.5-.5.8-.1.3-.2.7-.2 1 0 .5.2 1 .5 1.4.3.4.7.7 1.2.8.5.2 1.1.2 1.8.2.3 0 .7 0 1-.1.3 0 .6-.1.9-.1.3-.1.7-.2 1.2-.4-.1.3-.1.6-.2.9-.7.1-1.2.2-1.6.3-.4 0-.8.1-1.2.1-.7 0-1.3-.1-1.9-.2-.6-.1-1.1-.3-1.5-.6-.4-.3-.7-.7-.9-1.1-.2-.4-.3-.8-.3-1.3 0-.3.1-.7.2-1 .1-.3.3-.6.5-.9.2-.2.5-.5.8-.7.4-.3.8-.5 1.3-.7.5-.2 1.1-.4 1.8-.6.2 0 .9-.2 2.1-.5.5-.1 1-.3 1.5-.5s.9-.5 1.1-.9c.2-.4.4-.8.4-1.1 0-.3-.1-.6-.2-.8-.1-.3-.3-.5-.7-.7-.4-.2-.7-.4-1.2-.5-.5-.1-1-.1-1.5-.1-.6 0-1.2 0-1.7.1s-1 .2-1.3.3c-.4.1-.9.2-1.4.4z"></path><path id="i" d="M9.1 12c-.1.3-.1.7-.2.9-1.1.2-2 .3-3 .3-.9 0-1.7-.1-2.4-.4-.8-.2-1.4-.6-1.9-1.2-.5-.5-.9-1.2-1.2-2C.1 8.8 0 7.9 0 7.1c0-1.2.2-2.4.6-3.5.4-1.1 1.1-2 2-2.6.9-.6 2.1-1 3.7-1 1.1 0 2.2.2 3.2.5 0 .3 0 .6.1.9-.9-.3-1.5-.4-2-.5C7.1.8 6.7.8 6.3.8c-.9 0-1.6.2-2.3.5-.7.3-1.2.8-1.7 1.4-.4.6-.8 1.3-.9 2.1-.1.8-.3 1.5-.3 2.3 0 .8.1 1.6.3 2.3.2.7.5 1.3 1 1.7.5.4 1 .8 1.7 1 .7.2 1.4.4 2.1.4.4 0 .8 0 1.3-.1.3-.1.9-.2 1.6-.4zm-2.6 2.3l-1.5 3H3.4c1.1-1.2 2-2.2 2.6-3h.3.2z"></path><path id="j" d="M1.7 5.9c.1-.3.1-.6.1-1 .8-.2 1.6-.4 2.2-.5.6-.1 1.3-.1 1.9-.1.7 0 1.4.1 2.1.2.6.1 1.2.3 1.6.6.4.3.7.6.8 1 .1.4.2.8.2 1.2v1.6c0 .7-.1 1.3-.1 2s-.1 1.6-.1 2.7-.1 1.9-.1 2.4v1h-1c.1-1.3.2-2.3.2-3.1 0-.8.1-1.6.1-2.5 0-.9.1-1.8.1-2.5-.3.2-.5.4-.6.5-.1.1-.3.2-.4.3l-.6.3c-.2.1-.4.2-.6.2-.2.1-.7.2-1.4.4s-1.3.3-1.6.4c-.7.2-1.3.5-1.7.7-.4.2-.8.5-1.1.7-.2.2-.4.5-.5.8-.1.3-.2.7-.2 1 0 .5.2 1 .5 1.4.3.4.7.7 1.2.8.5.2 1.1.2 1.8.2.3 0 .7 0 1-.1.3 0 .6-.1.9-.1.3-.1.7-.2 1.2-.4-.1.3-.1.6-.2.9-.7.1-1.2.2-1.6.3-.4 0-.8.1-1.2.1-.7 0-1.3-.1-1.9-.2-.6-.1-1.1-.3-1.5-.6-.4-.3-.7-.7-.9-1.1-.2-.4-.3-.8-.3-1.3 0-.3.1-.7.2-1 .1-.3.3-.6.5-.9.2-.2.5-.5.8-.7.4-.3.8-.5 1.3-.7.5-.2 1.1-.4 1.8-.6.2 0 .9-.2 2.1-.5.5-.1 1-.3 1.5-.5s.9-.5 1.1-.9c.2-.4.4-.8.4-1.1 0-.3-.1-.6-.2-.8-.1-.3-.3-.5-.7-.7-.4-.2-.7-.4-1.2-.5-.5-.1-1-.1-1.5-.1-.6 0-1.2 0-1.7.1s-1 .2-1.3.3c-.4.1-.9.2-1.4.4zm1.6-3.4v-.9c0-.2.1-.5.1-.7.1-.2.1-.4.2-.5.1-.1.2-.2.4-.3.2-.1.3-.1.4-.1.2 0 .5.1.8.2.3.1.7.5 1.4 1 .2.1.3.2.5.3.2.1.3.1.4.1.1 0 .3 0 .4-.1.1-.1.2-.2.2-.4.1-.2.1-.5.1-.9h.7c0 .6-.1 1.1-.2 1.4-.1.3-.2.5-.4.7-.2.1-.4.2-.6.2-.2 0-.4 0-.5-.1-.2-.1-.5-.3-.9-.6-.6-.4-1-.7-1.1-.8C5 .9 4.9.9 4.7.9c-.1 0-.2 0-.3.1-.1 0-.2.1-.2.2-.1.1-.1.2-.1.4v.9h-.8z"></path><path id="k" d="M6.3 0c.8 0 1.5.1 2.2.3.7.2 1.4.6 1.9 1.1.6.5 1 1.2 1.3 2 .3.8.4 1.7.4 2.7 0 1-.2 2-.5 2.9-.3.9-.7 1.7-1.3 2.3-.6.6-1.2 1.1-2 1.3-.8.3-1.6.4-2.4.4-.6 0-1.2-.1-1.8-.2-.6-.1-1.1-.4-1.6-.7-.5-.3-.9-.7-1.3-1.3C.8 10.3.5 9.7.3 9 .1 8.3 0 7.6 0 6.8c0-1.3.2-2.6.7-3.7C1.2 2 1.9 1.2 2.9.7 4.1.2 5.2 0 6.3 0zm0 .7c-1 0-1.9.2-2.8.7-.8.5-1.5 1.2-1.9 2.2-.4 1-.6 2.1-.6 3.2 0 .8.1 1.6.3 2.3.2.7.6 1.3 1.1 1.8.5.5 1.1.8 1.6 1 .5.2 1.2.3 1.8.3.7 0 1.4-.1 2.1-.4.6-.2 1.2-.6 1.7-1.2s.9-1.3 1.1-2.1c.2-.8.3-1.7.3-2.6 0-.9-.1-1.7-.3-2.4-.2-.8-.6-1.4-1.1-1.8-.5-.5-1-.8-1.6-1-.4.1-1 0-1.7 0z"></path><path id="l" d="M.1 16.6c0-.3 0-.7-.1-1.1 1.6.7 3 1.1 4.3 1.1.7 0 1.4-.1 2-.4.6-.2 1.1-.6 1.4-1.1.3-.5.5-1 .5-1.6 0-.3-.1-.6-.2-.9-.1-.3-.3-.6-.5-.8-.2-.2-.6-.7-1-1.1-.4-.5-1.2-1.2-2.4-2.1l-1-.8c-.3-.3-.7-.6-1-.9-.3-.3-.6-.6-.8-.9-.2-.3-.4-.5-.5-.7-.1-.2-.2-.5-.2-.7-.1-.3-.1-.5-.1-.8 0-.7.2-1.3.5-1.9.4-.6.9-1 1.6-1.4C3.3.1 4.2 0 5.4 0c.8 0 1.8.1 3 .3 0 .3 0 .7.1 1-.8-.2-1.4-.4-1.9-.5-.5-.1-1-.1-1.4-.1-.8 0-1.5.1-2 .4-.5.3-.9.6-1.2 1.1-.3.5-.4.9-.4 1.4 0 .3 0 .5.1.8.1.3.2.5.4.8.2.3.4.5.8.9L4 7.2c.4.4 1 .9 1.7 1.5S6.9 9.8 7.2 10c.3.3.6.5.8.8.3.3.5.6.6.9.1.3.3.6.4.9.1.3.1.6.1 1 0 .8-.2 1.5-.6 2.1-.4.6-1 1-1.7 1.3-.8.3-1.6.5-2.6.5-.6 0-1.2 0-1.8-.1-.5-.3-1.3-.5-2.3-.8z"></path><path id="m" d="M5.9 14.4c-.1.2-.1.5-.1.8-.7.2-1.3.2-1.9.2-.5 0-.9-.1-1.3-.2s-.7-.3-.9-.6c-.2-.3-.4-.6-.5-.9-.1-.3-.1-.7-.1-1.1v-.3-.9l.4-8.2H0c0-.2.1-.4.1-.7h1.5c0-.5.1-1.3.1-2.3.3 0 .6-.1.8-.2-.1 1.3-.1 2.2-.1 2.5h3.7c0 .2-.1.4-.1.7H2.3l-.4 8.5v.5c0 .7.1 1.2.2 1.5.1.3.4.5.7.7.3.1.6.2.9.2.2 0 .5 0 .7-.1.4.2.8.1 1.5-.1z"></path><path id="n" d="M6.3 0c.8 0 1.5.1 2.2.3.7.2 1.4.6 1.9 1.1.6.5 1 1.2 1.3 2 .3.8.4 1.7.4 2.7 0 1-.2 2-.5 2.9-.3.9-.7 1.7-1.3 2.3-.6.6-1.2 1.1-2 1.3-.8.3-1.6.4-2.4.4-.6 0-1.2-.1-1.8-.2-.6-.1-1.1-.4-1.6-.7-.5-.3-.9-.7-1.3-1.3C.8 10.3.5 9.7.3 9 .1 8.3 0 7.6 0 6.8c0-1.3.2-2.6.7-3.7C1.2 2 1.9 1.2 2.9.7 4.1.2 5.2 0 6.3 0zm0 .7c-1 0-1.9.2-2.8.7-.8.5-1.5 1.2-1.9 2.2-.4 1-.6 2.1-.6 3.2 0 .8.1 1.6.3 2.3.2.7.6 1.3 1.1 1.8.5.5 1.1.8 1.6 1 .5.2 1.2.3 1.8.3.7 0 1.4-.1 2.1-.4.6-.2 1.2-.6 1.7-1.2s.9-1.3 1.1-2.1c.2-.8.3-1.7.3-2.6 0-.9-.1-1.7-.3-2.4-.2-.8-.6-1.4-1.1-1.8-.5-.5-1-.8-1.6-1-.4.1-1 0-1.7 0z"></path><path id="o" d="M0 12.8C.1 11 .2 9 .3 6.6c.1-2.4.1-4.1.1-5.3V.2h1l-.1 2.4c.3-.6.5-1 .8-1.3.2-.3.5-.5.8-.7.3-.2.7-.3 1.1-.4.4-.1.9-.2 1.3-.2.3 0 .7 0 1 .1v.8C5.7.8 5.3.7 4.9.7c-.4 0-.8.1-1.1.2-.3.1-.6.3-.9.5-.3.2-.6.5-.8.9-.2.4-.5.7-.6 1.2-.2.5-.3 1-.3 1.7-.1 1.1-.1 2.3-.2 3.6v4.1H.5c-.1-.1-.3-.1-.5-.1z"></path><path id="p" d="M9.8 11.6c-.1.3-.1.6-.1.9-.7.2-1.3.3-1.9.4-.5.1-1.1.1-1.7.1-1 0-1.9-.1-2.6-.4-.8-.3-1.4-.7-2-1.3C.9 10.7.6 10 .3 9.2.1 8.4 0 7.6 0 6.7c0-1.2.2-2.2.6-3.2.4-1 1.1-1.8 2-2.5.9-.7 2-1 3.4-1 .9 0 1.8.2 2.5.5s1.3.9 1.8 1.7c.4.8.6 1.7.6 2.8v.6H1c0 .5-.1.9-.1 1.2 0 .8.1 1.5.3 2.3.2.7.6 1.4 1.1 1.9.5.5 1 .9 1.7 1.1.7.2 1.4.4 2.1.4 1.1-.2 2.3-.4 3.7-.9zM1.1 4.8H10c0-.6 0-1-.1-1.3l-.3-.9c-.1-.3-.3-.6-.6-.8-.2-.2-.5-.4-.8-.6-.3-.2-.6-.3-1-.4C6.8.7 6.5.7 6.1.7c-.4 0-.9 0-1.3.1s-.8.2-1.2.4c-.3.2-.7.4-1 .7-.3.3-.6.6-.7.9-.1.3-.3.6-.4.9-.2.3-.3.6-.4 1.1z"></path></defs></svg>